<mxfile host="Electron" agent="Mozilla/5.0 (X11; Linux x86_64) AppleWebKit/537.36 (KHTML, like Gecko) draw.io/26.1.1 Chrome/134.0.6998.205 Electron/35.6.0 Safari/537.36" version="26.1.1">
  <diagram name="Page-1" id="_b6Gymd6a5DSMLMJoFUy">
    <mxGraphModel dx="1687" dy="1171" grid="1" gridSize="10" guides="1" tooltips="1" connect="1" arrows="1" fold="1" page="1" pageScale="1" pageWidth="850" pageHeight="1100" math="0" shadow="0">
      <root>
        <mxCell id="0" />
        <mxCell id="1" parent="0" />
        <mxCell id="ln3X15agSTF2--OKg3Kk-9" value="" style="rounded=0;whiteSpace=wrap;html=1;fontColor=default;fillColor=none;strokeColor=none;" parent="1" vertex="1">
          <mxGeometry x="120" y="280" width="560" height="280" as="geometry" />
        </mxCell>
        <mxCell id="ln3X15agSTF2--OKg3Kk-1" value="&lt;b&gt;&lt;font style=&quot;font-size: 18px;&quot;&gt;Acoustic Robot Simulator&lt;br&gt;&lt;/font&gt;&lt;/b&gt;&lt;br&gt;&lt;font style=&quot;font-size: 16px;&quot;&gt;Simulate dynamic acoustic environments&lt;/font&gt;" style="rounded=1;whiteSpace=wrap;html=1;arcSize=3;align=left;verticalAlign=top;spacingTop=0;spacingLeft=6;fillColor=#d5e8d4;strokeColor=#82b366;" parent="1" vertex="1">
          <mxGeometry x="200" y="310" width="450" height="70" as="geometry" />
        </mxCell>
        <mxCell id="ln3X15agSTF2--OKg3Kk-2" value="&lt;span style=&quot;font-size: 18px;&quot;&gt;&lt;b&gt;(Active) Sound Source Localization&lt;/b&gt;&lt;/span&gt;&lt;br&gt;&lt;font style=&quot;&quot;&gt;&lt;br&gt;&lt;font style=&quot;font-size: 16px;&quot;&gt;Accurately localize speaker(s) in a reverberant room&lt;/font&gt;&lt;/font&gt;" style="rounded=1;whiteSpace=wrap;html=1;arcSize=3;align=left;verticalAlign=top;spacingTop=0;spacingLeft=6;fillColor=#dae8fc;strokeColor=#6c8ebf;" parent="1" vertex="1">
          <mxGeometry x="200" y="390" width="450" height="70" as="geometry" />
        </mxCell>
        <mxCell id="ln3X15agSTF2--OKg3Kk-3" value="&lt;span style=&quot;font-size: 18px;&quot;&gt;&lt;b&gt;Deep RL for Sound-Based Navigation&lt;/b&gt;&lt;/span&gt;&lt;br&gt;&lt;font style=&quot;&quot;&gt;&lt;br&gt;&lt;font style=&quot;font-size: 16px;&quot;&gt;Learn to navigate to hear humans better&lt;/font&gt;&lt;/font&gt;" style="rounded=1;whiteSpace=wrap;html=1;arcSize=3;align=left;verticalAlign=top;spacingTop=0;spacingLeft=6;fillColor=#e1d5e7;strokeColor=#9673a6;" parent="1" vertex="1">
          <mxGeometry x="200" y="470" width="450" height="70" as="geometry" />
        </mxCell>
        <mxCell id="ln3X15agSTF2--OKg3Kk-4" value="1" style="rounded=1;whiteSpace=wrap;html=1;fontSize=20;fillColor=#d5e8d4;strokeColor=#82b366;" parent="1" vertex="1">
          <mxGeometry x="140" y="327.5" width="40" height="35" as="geometry" />
        </mxCell>
        <mxCell id="ln3X15agSTF2--OKg3Kk-6" value="2" style="rounded=1;whiteSpace=wrap;html=1;fontSize=20;fillColor=#dae8fc;strokeColor=#6c8ebf;" parent="1" vertex="1">
          <mxGeometry x="140" y="407.5" width="40" height="35" as="geometry" />
        </mxCell>
        <mxCell id="ln3X15agSTF2--OKg3Kk-7" value="3" style="rounded=1;whiteSpace=wrap;html=1;fontSize=20;fillColor=#e1d5e7;strokeColor=#9673a6;" parent="1" vertex="1">
          <mxGeometry x="140" y="487.5" width="40" height="35" as="geometry" />
        </mxCell>
        <mxCell id="ln3X15agSTF2--OKg3Kk-8" value="&lt;span&gt;π&lt;/span&gt;&lt;sub&gt;θ&lt;/sub&gt;" style="text;html=1;align=center;verticalAlign=middle;whiteSpace=wrap;rounded=0;fontSize=23;" parent="1" vertex="1">
          <mxGeometry x="610" y="485" width="35" height="40" as="geometry" />
        </mxCell>
        <mxCell id="ln3X15agSTF2--OKg3Kk-10" value="" style="rounded=0;whiteSpace=wrap;html=1;fontColor=default;fillColor=none;strokeColor=none;" parent="1" vertex="1">
          <mxGeometry x="120" y="570" width="560" height="280" as="geometry" />
        </mxCell>
        <mxCell id="ln3X15agSTF2--OKg3Kk-11" value="&lt;b&gt;&lt;font style=&quot;font-size: 18px;&quot;&gt;Acoustic Robot Simulator&lt;br&gt;&lt;/font&gt;&lt;/b&gt;&lt;br&gt;&lt;font style=&quot;font-size: 16px;&quot;&gt;Simulate dynamic acoustic environments&lt;/font&gt;" style="rounded=1;whiteSpace=wrap;html=1;arcSize=3;align=left;verticalAlign=top;spacingTop=0;spacingLeft=6;fillColor=#d5e8d4;strokeColor=#82b366;" parent="1" vertex="1">
          <mxGeometry x="200" y="600" width="450" height="70" as="geometry" />
        </mxCell>
        <mxCell id="ln3X15agSTF2--OKg3Kk-12" value="&lt;span style=&quot;font-size: 18px;&quot;&gt;&lt;b&gt;(Active) Sound Source Localization&lt;/b&gt;&lt;/span&gt;&lt;br&gt;&lt;font style=&quot;&quot;&gt;&lt;br&gt;&lt;font style=&quot;font-size: 16px;&quot;&gt;Accurately localize speaker(s) in a reverberant room&lt;/font&gt;&lt;/font&gt;" style="rounded=1;whiteSpace=wrap;html=1;arcSize=3;align=left;verticalAlign=top;spacingTop=0;spacingLeft=6;fillColor=#f5f5f5;strokeColor=#808080;fontColor=#808080;" parent="1" vertex="1">
          <mxGeometry x="200" y="680" width="450" height="70" as="geometry" />
        </mxCell>
        <mxCell id="ln3X15agSTF2--OKg3Kk-13" value="&lt;span style=&quot;font-size: 18px;&quot;&gt;&lt;b&gt;Deep RL for Sound-Based Navigation&lt;/b&gt;&lt;/span&gt;&lt;br&gt;&lt;font style=&quot;&quot;&gt;&lt;br&gt;&lt;font style=&quot;font-size: 16px;&quot;&gt;Learn to navigate to hear humans better&lt;/font&gt;&lt;/font&gt;" style="rounded=1;whiteSpace=wrap;html=1;arcSize=3;align=left;verticalAlign=top;spacingTop=0;spacingLeft=6;fillColor=#f5f5f5;strokeColor=#808080;fontColor=#808080;" parent="1" vertex="1">
          <mxGeometry x="200" y="760" width="450" height="70" as="geometry" />
        </mxCell>
        <mxCell id="ln3X15agSTF2--OKg3Kk-14" value="1" style="rounded=1;whiteSpace=wrap;html=1;fontSize=20;fillColor=#d5e8d4;strokeColor=#82b366;" parent="1" vertex="1">
          <mxGeometry x="140" y="617.5" width="40" height="35" as="geometry" />
        </mxCell>
        <mxCell id="ln3X15agSTF2--OKg3Kk-15" value="2" style="rounded=1;whiteSpace=wrap;html=1;fontSize=20;fillColor=#f5f5f5;strokeColor=#808080;fontColor=#808080;" parent="1" vertex="1">
          <mxGeometry x="140" y="697.5" width="40" height="35" as="geometry" />
        </mxCell>
        <mxCell id="ln3X15agSTF2--OKg3Kk-16" value="3" style="rounded=1;whiteSpace=wrap;html=1;fontSize=20;fillColor=#f5f5f5;strokeColor=#808080;fontColor=#808080;" parent="1" vertex="1">
          <mxGeometry x="140" y="777.5" width="40" height="35" as="geometry" />
        </mxCell>
        <mxCell id="ln3X15agSTF2--OKg3Kk-17" value="&lt;span&gt;π&lt;/span&gt;&lt;sub&gt;θ&lt;/sub&gt;" style="text;html=1;align=center;verticalAlign=middle;whiteSpace=wrap;rounded=0;fontSize=23;fontColor=#808080;fillColor=#f5f5f5;strokeColor=none;" parent="1" vertex="1">
          <mxGeometry x="610" y="775" width="35" height="40" as="geometry" />
        </mxCell>
        <mxCell id="ln3X15agSTF2--OKg3Kk-18" value="" style="rounded=0;whiteSpace=wrap;html=1;fontColor=default;fillColor=none;strokeColor=none;" parent="1" vertex="1">
          <mxGeometry x="120" y="840" width="560" height="280" as="geometry" />
        </mxCell>
        <mxCell id="ln3X15agSTF2--OKg3Kk-19" value="&lt;b&gt;&lt;font style=&quot;font-size: 18px;&quot;&gt;Acoustic Robot Simulator&lt;br&gt;&lt;/font&gt;&lt;/b&gt;&lt;br&gt;&lt;font style=&quot;font-size: 16px;&quot;&gt;Simulate dynamic acoustic environments&lt;/font&gt;" style="rounded=1;whiteSpace=wrap;html=1;arcSize=3;align=left;verticalAlign=top;spacingTop=0;spacingLeft=6;fillColor=#f5f5f5;strokeColor=#808080;fontColor=#808080;" parent="1" vertex="1">
          <mxGeometry x="200" y="870" width="450" height="70" as="geometry" />
        </mxCell>
        <mxCell id="ln3X15agSTF2--OKg3Kk-20" value="&lt;span style=&quot;font-size: 18px;&quot;&gt;&lt;b&gt;(Active) Sound Source Localization&lt;/b&gt;&lt;/span&gt;&lt;br&gt;&lt;font style=&quot;&quot;&gt;&lt;br&gt;&lt;font style=&quot;font-size: 16px;&quot;&gt;Accurately localize speaker(s) in a reverberant room&lt;/font&gt;&lt;/font&gt;" style="rounded=1;whiteSpace=wrap;html=1;arcSize=3;align=left;verticalAlign=top;spacingTop=0;spacingLeft=6;fillColor=#dae8fc;strokeColor=#6c8ebf;" parent="1" vertex="1">
          <mxGeometry x="200" y="950" width="450" height="70" as="geometry" />
        </mxCell>
        <mxCell id="ln3X15agSTF2--OKg3Kk-21" value="&lt;span style=&quot;font-size: 18px;&quot;&gt;&lt;b&gt;Deep RL for Sound-Based Navigation&lt;/b&gt;&lt;/span&gt;&lt;br&gt;&lt;font style=&quot;&quot;&gt;&lt;br&gt;&lt;font style=&quot;font-size: 16px;&quot;&gt;Learn to navigate to hear humans better&lt;/font&gt;&lt;/font&gt;" style="rounded=1;whiteSpace=wrap;html=1;arcSize=3;align=left;verticalAlign=top;spacingTop=0;spacingLeft=6;fillColor=#f5f5f5;strokeColor=#808080;fontColor=#808080;" parent="1" vertex="1">
          <mxGeometry x="200" y="1030" width="450" height="70" as="geometry" />
        </mxCell>
        <mxCell id="ln3X15agSTF2--OKg3Kk-22" value="1" style="rounded=1;whiteSpace=wrap;html=1;fontSize=20;fillColor=#f5f5f5;strokeColor=#808080;fontColor=#808080;" parent="1" vertex="1">
          <mxGeometry x="140" y="887.5" width="40" height="35" as="geometry" />
        </mxCell>
        <mxCell id="ln3X15agSTF2--OKg3Kk-23" value="2" style="rounded=1;whiteSpace=wrap;html=1;fontSize=20;fillColor=#dae8fc;strokeColor=#6c8ebf;" parent="1" vertex="1">
          <mxGeometry x="140" y="967.5" width="40" height="35" as="geometry" />
        </mxCell>
        <mxCell id="ln3X15agSTF2--OKg3Kk-24" value="3" style="rounded=1;whiteSpace=wrap;html=1;fontSize=20;fillColor=#f5f5f5;strokeColor=#808080;fontColor=#808080;" parent="1" vertex="1">
          <mxGeometry x="140" y="1047.5" width="40" height="35" as="geometry" />
        </mxCell>
        <mxCell id="ln3X15agSTF2--OKg3Kk-25" value="&lt;span&gt;π&lt;/span&gt;&lt;sub&gt;θ&lt;/sub&gt;" style="text;html=1;align=center;verticalAlign=middle;whiteSpace=wrap;rounded=0;fontSize=23;fillColor=none;fontColor=#808080;strokeColor=none;" parent="1" vertex="1">
          <mxGeometry x="610" y="1045" width="35" height="40" as="geometry" />
        </mxCell>
        <mxCell id="ln3X15agSTF2--OKg3Kk-26" value="" style="rounded=0;whiteSpace=wrap;html=1;fontColor=default;fillColor=none;strokeColor=none;" parent="1" vertex="1">
          <mxGeometry x="120" y="1120" width="560" height="280" as="geometry" />
        </mxCell>
        <mxCell id="ln3X15agSTF2--OKg3Kk-27" value="&lt;b&gt;&lt;font style=&quot;font-size: 18px;&quot;&gt;Acoustic Robot Simulator&lt;br&gt;&lt;/font&gt;&lt;/b&gt;&lt;br&gt;&lt;font style=&quot;font-size: 16px;&quot;&gt;Simulate dynamic acoustic environments&lt;/font&gt;" style="rounded=1;whiteSpace=wrap;html=1;arcSize=3;align=left;verticalAlign=top;spacingTop=0;spacingLeft=6;fillColor=#f5f5f5;strokeColor=#808080;fontColor=#808080;" parent="1" vertex="1">
          <mxGeometry x="200" y="1150" width="450" height="70" as="geometry" />
        </mxCell>
        <mxCell id="ln3X15agSTF2--OKg3Kk-28" value="&lt;span style=&quot;font-size: 18px;&quot;&gt;&lt;b&gt;(Active) Sound Source Localization&lt;/b&gt;&lt;/span&gt;&lt;br&gt;&lt;font style=&quot;&quot;&gt;&lt;br&gt;&lt;font style=&quot;font-size: 16px;&quot;&gt;Accurately localize speaker(s) in a reverberant room&lt;/font&gt;&lt;/font&gt;" style="rounded=1;whiteSpace=wrap;html=1;arcSize=3;align=left;verticalAlign=top;spacingTop=0;spacingLeft=6;fillColor=#f5f5f5;strokeColor=#808080;fontColor=#808080;" parent="1" vertex="1">
          <mxGeometry x="200" y="1230" width="450" height="70" as="geometry" />
        </mxCell>
        <mxCell id="ln3X15agSTF2--OKg3Kk-29" value="&lt;span style=&quot;font-size: 18px;&quot;&gt;&lt;b&gt;Deep RL for Sound-Based Navigation&lt;/b&gt;&lt;/span&gt;&lt;br&gt;&lt;font style=&quot;&quot;&gt;&lt;br&gt;&lt;font style=&quot;font-size: 16px;&quot;&gt;Learn to navigate to hear humans better&lt;/font&gt;&lt;/font&gt;" style="rounded=1;whiteSpace=wrap;html=1;arcSize=3;align=left;verticalAlign=top;spacingTop=0;spacingLeft=6;fillColor=#e1d5e7;strokeColor=#9673a6;" parent="1" vertex="1">
          <mxGeometry x="200" y="1310" width="450" height="70" as="geometry" />
        </mxCell>
        <mxCell id="ln3X15agSTF2--OKg3Kk-30" value="1" style="rounded=1;whiteSpace=wrap;html=1;fontSize=20;fillColor=#f5f5f5;strokeColor=#808080;fontColor=#808080;" parent="1" vertex="1">
          <mxGeometry x="140" y="1167.5" width="40" height="35" as="geometry" />
        </mxCell>
        <mxCell id="ln3X15agSTF2--OKg3Kk-31" value="2" style="rounded=1;whiteSpace=wrap;html=1;fontSize=20;fillColor=#f5f5f5;strokeColor=#808080;fontColor=#808080;" parent="1" vertex="1">
          <mxGeometry x="140" y="1247.5" width="40" height="35" as="geometry" />
        </mxCell>
        <mxCell id="ln3X15agSTF2--OKg3Kk-32" value="3" style="rounded=1;whiteSpace=wrap;html=1;fontSize=20;fillColor=#e1d5e7;strokeColor=#9673a6;" parent="1" vertex="1">
          <mxGeometry x="140" y="1327.5" width="40" height="35" as="geometry" />
        </mxCell>
        <mxCell id="ln3X15agSTF2--OKg3Kk-33" value="&lt;span&gt;π&lt;/span&gt;&lt;sub&gt;θ&lt;/sub&gt;" style="text;html=1;align=center;verticalAlign=middle;whiteSpace=wrap;rounded=0;fontSize=23;" parent="1" vertex="1">
          <mxGeometry x="610" y="1325" width="35" height="40" as="geometry" />
        </mxCell>
        <mxCell id="IUVYeyd4DuOK6Qj74Us7-14" value="&lt;b style=&quot;text-wrap-mode: wrap;&quot;&gt;&lt;font style=&quot;font-size: 18px;&quot;&gt;Acoustic Robot Simulator&lt;br&gt;&lt;/font&gt;&lt;/b&gt;&lt;br style=&quot;text-wrap-mode: wrap;&quot;&gt;&lt;font style=&quot;text-wrap-mode: wrap; font-size: 16px;&quot;&gt;Simulate dynamic acoustic environments&lt;/font&gt;" style="html=1;shadow=0;dashed=0;align=left;verticalAlign=middle;shape=mxgraph.arrows2.arrow;dy=0;dx=10;notch=10;whiteSpace=wrap;fillColor=#23373B;fontColor=#FFFFFF;strokeColor=none;spacingLeft=40;" vertex="1" parent="1">
          <mxGeometry x="1400" y="1535" width="470" height="70" as="geometry" />
        </mxCell>
        <mxCell id="IUVYeyd4DuOK6Qj74Us7-15" value="&lt;div style=&quot;text-align: left;&quot;&gt;&lt;span&gt;&lt;b&gt;1&lt;/b&gt;&lt;/span&gt;&lt;/div&gt;" style="html=1;shadow=0;dashed=0;align=center;verticalAlign=middle;shape=mxgraph.arrows2.arrow;dy=0;dx=10;notch=10;whiteSpace=wrap;labelBackgroundColor=none;fillColor=#EB811B;fontColor=#FFFFFF;fontSize=35;" vertex="1" parent="1">
          <mxGeometry x="1340" y="1535" width="60" height="70" as="geometry" />
        </mxCell>
        <mxCell id="IUVYeyd4DuOK6Qj74Us7-48" value="" style="group" vertex="1" connectable="0" parent="1">
          <mxGeometry x="130" y="1450" width="530" height="70" as="geometry" />
        </mxCell>
        <mxCell id="IUVYeyd4DuOK6Qj74Us7-9" value="&lt;div style=&quot;&quot;&gt;&lt;span style=&quot;background-color: transparent; color: light-dark(rgb(255, 255, 255), rgb(18, 18, 18)); font-size: 18px;&quot;&gt;&lt;b&gt;Introduction&lt;/b&gt;&lt;/span&gt;&lt;/div&gt;" style="html=1;shadow=0;dashed=0;align=left;verticalAlign=middle;shape=mxgraph.arrows2.arrow;dy=0;dx=10;notch=10;whiteSpace=wrap;fillColor=#23373B;fontColor=#FFFFFF;strokeColor=none;spacingLeft=40;" vertex="1" parent="IUVYeyd4DuOK6Qj74Us7-48">
          <mxGeometry x="60" width="470" height="70" as="geometry" />
        </mxCell>
        <mxCell id="IUVYeyd4DuOK6Qj74Us7-11" value="&lt;div style=&quot;text-align: left;&quot;&gt;&lt;br&gt;&lt;/div&gt;" style="html=1;shadow=0;dashed=0;align=center;verticalAlign=middle;shape=mxgraph.arrows2.arrow;dy=0;dx=10;notch=10;whiteSpace=wrap;labelBackgroundColor=none;fillColor=#EB811B;fontColor=#FFFFFF;fontSize=35;" vertex="1" parent="IUVYeyd4DuOK6Qj74Us7-48">
          <mxGeometry width="60" height="70" as="geometry" />
        </mxCell>
        <mxCell id="IUVYeyd4DuOK6Qj74Us7-49" value="" style="group" vertex="1" connectable="0" parent="1">
          <mxGeometry x="130" y="1530" width="530" height="70" as="geometry" />
        </mxCell>
        <mxCell id="IUVYeyd4DuOK6Qj74Us7-1" value="&lt;b style=&quot;text-wrap-mode: wrap;&quot;&gt;&lt;font style=&quot;font-size: 18px;&quot;&gt;Acoustic Robot Simulator&lt;br&gt;&lt;/font&gt;&lt;/b&gt;&lt;br style=&quot;text-wrap-mode: wrap;&quot;&gt;&lt;font style=&quot;text-wrap-mode: wrap; font-size: 16px;&quot;&gt;Simulate dynamic acoustic environments&lt;/font&gt;" style="html=1;shadow=0;dashed=0;align=left;verticalAlign=middle;shape=mxgraph.arrows2.arrow;dy=0;dx=10;notch=10;whiteSpace=wrap;fillColor=#23373B;fontColor=#FFFFFF;strokeColor=none;spacingLeft=40;" vertex="1" parent="IUVYeyd4DuOK6Qj74Us7-49">
          <mxGeometry x="60" width="470" height="70" as="geometry" />
        </mxCell>
        <mxCell id="IUVYeyd4DuOK6Qj74Us7-2" value="&lt;div style=&quot;text-align: left;&quot;&gt;&lt;span&gt;&lt;b&gt;1&lt;/b&gt;&lt;/span&gt;&lt;/div&gt;" style="html=1;shadow=0;dashed=0;align=center;verticalAlign=middle;shape=mxgraph.arrows2.arrow;dy=0;dx=10;notch=10;whiteSpace=wrap;labelBackgroundColor=none;fillColor=#EB811B;fontColor=#FFFFFF;fontSize=35;" vertex="1" parent="IUVYeyd4DuOK6Qj74Us7-49">
          <mxGeometry width="60" height="70" as="geometry" />
        </mxCell>
        <mxCell id="IUVYeyd4DuOK6Qj74Us7-50" value="" style="group" vertex="1" connectable="0" parent="1">
          <mxGeometry x="130" y="1610" width="530" height="70" as="geometry" />
        </mxCell>
        <mxCell id="IUVYeyd4DuOK6Qj74Us7-3" value="&lt;font style=&quot;color: rgb(255, 255, 255);&quot;&gt;&lt;span style=&quot;font-size: 18px;&quot;&gt;&lt;b style=&quot;&quot;&gt;(Active) Sound Source Localization&lt;/b&gt;&lt;/span&gt;&lt;br style=&quot;&quot;&gt;&lt;font style=&quot;&quot;&gt;&lt;br&gt;&lt;font style=&quot;font-size: 16px;&quot;&gt;Accurately localize speaker(s) in a reverberant room&lt;/font&gt;&lt;/font&gt;&lt;/font&gt;" style="html=1;shadow=0;dashed=0;align=left;verticalAlign=middle;shape=mxgraph.arrows2.arrow;dy=0;dx=10;notch=10;whiteSpace=wrap;fillColor=#23373B;fontColor=#FFFFFF;strokeColor=none;spacingLeft=40;" vertex="1" parent="IUVYeyd4DuOK6Qj74Us7-50">
          <mxGeometry x="60" width="470" height="70" as="geometry" />
        </mxCell>
        <mxCell id="IUVYeyd4DuOK6Qj74Us7-4" value="&lt;div style=&quot;text-align: left;&quot;&gt;&lt;span&gt;&lt;b&gt;2&lt;/b&gt;&lt;/span&gt;&lt;/div&gt;" style="html=1;shadow=0;dashed=0;align=center;verticalAlign=middle;shape=mxgraph.arrows2.arrow;dy=0;dx=10;notch=10;whiteSpace=wrap;labelBackgroundColor=none;fillColor=#EB811B;fontColor=#FFFFFF;fontSize=35;" vertex="1" parent="IUVYeyd4DuOK6Qj74Us7-50">
          <mxGeometry width="60" height="70" as="geometry" />
        </mxCell>
        <mxCell id="IUVYeyd4DuOK6Qj74Us7-51" value="" style="group" vertex="1" connectable="0" parent="1">
          <mxGeometry x="130" y="1690" width="530" height="70" as="geometry" />
        </mxCell>
        <mxCell id="IUVYeyd4DuOK6Qj74Us7-5" value="&lt;font style=&quot;color: rgb(255, 255, 255);&quot;&gt;&lt;span style=&quot;font-size: 18px;&quot;&gt;&lt;b style=&quot;&quot;&gt;Deep RL for Sound-Based Navigation&lt;/b&gt;&lt;/span&gt;&lt;br style=&quot;&quot;&gt;&lt;font style=&quot;&quot;&gt;&lt;br&gt;&lt;font style=&quot;font-size: 16px;&quot;&gt;Learn to navigate to hear humans better&lt;/font&gt;&lt;/font&gt;&lt;/font&gt;" style="html=1;shadow=0;dashed=0;align=left;verticalAlign=middle;shape=mxgraph.arrows2.arrow;dy=0;dx=10;notch=10;whiteSpace=wrap;fillColor=#23373B;fontColor=#FFFFFF;strokeColor=none;spacingLeft=40;" vertex="1" parent="IUVYeyd4DuOK6Qj74Us7-51">
          <mxGeometry x="60" width="470" height="70" as="geometry" />
        </mxCell>
        <mxCell id="IUVYeyd4DuOK6Qj74Us7-6" value="&lt;div style=&quot;text-align: left;&quot;&gt;&lt;span&gt;&lt;b&gt;3&lt;/b&gt;&lt;/span&gt;&lt;/div&gt;" style="html=1;shadow=0;dashed=0;align=center;verticalAlign=middle;shape=mxgraph.arrows2.arrow;dy=0;dx=10;notch=10;whiteSpace=wrap;labelBackgroundColor=none;fillColor=#EB811B;fontColor=#FFFFFF;fontSize=35;" vertex="1" parent="IUVYeyd4DuOK6Qj74Us7-51">
          <mxGeometry width="60" height="70" as="geometry" />
        </mxCell>
        <mxCell id="IUVYeyd4DuOK6Qj74Us7-52" value="" style="group" vertex="1" connectable="0" parent="1">
          <mxGeometry x="130" y="1770" width="530" height="70" as="geometry" />
        </mxCell>
        <mxCell id="IUVYeyd4DuOK6Qj74Us7-10" value="&lt;div style=&quot;&quot;&gt;&lt;span style=&quot;background-color: transparent; color: light-dark(rgb(255, 255, 255), rgb(18, 18, 18)); font-size: 18px;&quot;&gt;&lt;b&gt;Conclusion&lt;/b&gt;&lt;/span&gt;&lt;/div&gt;" style="html=1;shadow=0;dashed=0;align=left;verticalAlign=middle;shape=mxgraph.arrows2.arrow;dy=0;dx=10;notch=10;whiteSpace=wrap;fillColor=#23373B;fontColor=#FFFFFF;strokeColor=none;spacingLeft=40;" vertex="1" parent="IUVYeyd4DuOK6Qj74Us7-52">
          <mxGeometry x="60" width="470" height="70" as="geometry" />
        </mxCell>
        <mxCell id="IUVYeyd4DuOK6Qj74Us7-12" value="&lt;div style=&quot;text-align: left;&quot;&gt;&lt;br&gt;&lt;/div&gt;" style="html=1;shadow=0;dashed=0;align=center;verticalAlign=middle;shape=mxgraph.arrows2.arrow;dy=0;dx=10;notch=10;whiteSpace=wrap;labelBackgroundColor=none;fillColor=#EB811B;fontColor=#FFFFFF;fontSize=35;" vertex="1" parent="IUVYeyd4DuOK6Qj74Us7-52">
          <mxGeometry width="60" height="70" as="geometry" />
        </mxCell>
        <mxCell id="IUVYeyd4DuOK6Qj74Us7-53" value="" style="group" vertex="1" connectable="0" parent="1">
          <mxGeometry x="1905" y="1615" width="530" height="70" as="geometry" />
        </mxCell>
        <mxCell id="IUVYeyd4DuOK6Qj74Us7-54" value="&lt;font style=&quot;color: rgb(255, 255, 255);&quot;&gt;&lt;span style=&quot;font-size: 18px;&quot;&gt;&lt;b style=&quot;&quot;&gt;(Active) Sound Source Localization&lt;/b&gt;&lt;/span&gt;&lt;br style=&quot;&quot;&gt;&lt;font style=&quot;&quot;&gt;&lt;br&gt;&lt;font style=&quot;font-size: 16px;&quot;&gt;Accurately localize speaker(s) in a reverberant room&lt;/font&gt;&lt;/font&gt;&lt;/font&gt;" style="html=1;shadow=0;dashed=0;align=left;verticalAlign=middle;shape=mxgraph.arrows2.arrow;dy=0;dx=10;notch=10;whiteSpace=wrap;fillColor=#23373B;fontColor=#FFFFFF;strokeColor=none;spacingLeft=40;" vertex="1" parent="IUVYeyd4DuOK6Qj74Us7-53">
          <mxGeometry x="60" width="470" height="70" as="geometry" />
        </mxCell>
        <mxCell id="IUVYeyd4DuOK6Qj74Us7-55" value="&lt;div style=&quot;text-align: left;&quot;&gt;&lt;span&gt;&lt;b&gt;2&lt;/b&gt;&lt;/span&gt;&lt;/div&gt;" style="html=1;shadow=0;dashed=0;align=center;verticalAlign=middle;shape=mxgraph.arrows2.arrow;dy=0;dx=10;notch=10;whiteSpace=wrap;labelBackgroundColor=none;fillColor=#EB811B;fontColor=#FFFFFF;fontSize=35;" vertex="1" parent="IUVYeyd4DuOK6Qj74Us7-53">
          <mxGeometry width="60" height="70" as="geometry" />
        </mxCell>
        <mxCell id="IUVYeyd4DuOK6Qj74Us7-67" value="" style="group;fontColor=#666666;" vertex="1" connectable="0" parent="1">
          <mxGeometry x="1340" y="1615" width="530" height="70" as="geometry" />
        </mxCell>
        <mxCell id="IUVYeyd4DuOK6Qj74Us7-16" value="&lt;font style=&quot;&quot;&gt;&lt;span style=&quot;font-size: 18px;&quot;&gt;&lt;b style=&quot;&quot;&gt;(Active) Sound Source Localization&lt;/b&gt;&lt;/span&gt;&lt;br style=&quot;&quot;&gt;&lt;font style=&quot;&quot;&gt;&lt;br&gt;&lt;font style=&quot;font-size: 16px;&quot;&gt;Accurately localize speaker(s) in a reverberant room&lt;/font&gt;&lt;/font&gt;&lt;/font&gt;" style="html=1;shadow=0;dashed=0;align=left;verticalAlign=middle;shape=mxgraph.arrows2.arrow;dy=0;dx=10;notch=10;whiteSpace=wrap;fillColor=#f5f5f5;fontColor=#666666;strokeColor=#555555;spacingLeft=40;" vertex="1" parent="IUVYeyd4DuOK6Qj74Us7-67">
          <mxGeometry x="60" width="470" height="70" as="geometry" />
        </mxCell>
        <mxCell id="IUVYeyd4DuOK6Qj74Us7-17" value="&lt;div style=&quot;text-align: left;&quot;&gt;&lt;span&gt;&lt;b&gt;2&lt;/b&gt;&lt;/span&gt;&lt;/div&gt;" style="html=1;shadow=0;dashed=0;align=center;verticalAlign=middle;shape=mxgraph.arrows2.arrow;dy=0;dx=10;notch=10;whiteSpace=wrap;labelBackgroundColor=none;fillColor=#f5f5f5;fontColor=#555555;fontSize=35;strokeColor=#666666;" vertex="1" parent="IUVYeyd4DuOK6Qj74Us7-67">
          <mxGeometry width="60" height="70" as="geometry" />
        </mxCell>
        <mxCell id="IUVYeyd4DuOK6Qj74Us7-82" value="" style="group;fontColor=#666666;" vertex="1" connectable="0" parent="1">
          <mxGeometry x="1340" y="1775" width="530" height="70" as="geometry" />
        </mxCell>
        <mxCell id="IUVYeyd4DuOK6Qj74Us7-21" value="&lt;div style=&quot;&quot;&gt;&lt;span style=&quot;background-color: transparent; font-size: 18px;&quot;&gt;&lt;b&gt;Conclusion&lt;/b&gt;&lt;/span&gt;&lt;/div&gt;" style="html=1;shadow=0;dashed=0;align=left;verticalAlign=middle;shape=mxgraph.arrows2.arrow;dy=0;dx=10;notch=10;whiteSpace=wrap;fillColor=#f5f5f5;fontColor=#666666;strokeColor=#555555;spacingLeft=40;" vertex="1" parent="IUVYeyd4DuOK6Qj74Us7-82">
          <mxGeometry x="60" width="470" height="70" as="geometry" />
        </mxCell>
        <mxCell id="IUVYeyd4DuOK6Qj74Us7-23" value="&lt;div style=&quot;text-align: left;&quot;&gt;&lt;br&gt;&lt;/div&gt;" style="html=1;shadow=0;dashed=0;align=center;verticalAlign=middle;shape=mxgraph.arrows2.arrow;dy=0;dx=10;notch=10;whiteSpace=wrap;labelBackgroundColor=none;fillColor=#f5f5f5;fontColor=#333333;fontSize=35;strokeColor=#666666;" vertex="1" parent="IUVYeyd4DuOK6Qj74Us7-82">
          <mxGeometry width="60" height="70" as="geometry" />
        </mxCell>
        <mxCell id="IUVYeyd4DuOK6Qj74Us7-83" value="" style="group;fontColor=#666666;" vertex="1" connectable="0" parent="1">
          <mxGeometry x="1340" y="1695" width="530" height="70" as="geometry" />
        </mxCell>
        <mxCell id="IUVYeyd4DuOK6Qj74Us7-18" value="&lt;font style=&quot;&quot;&gt;&lt;span style=&quot;font-size: 18px;&quot;&gt;&lt;b style=&quot;&quot;&gt;Deep RL for Sound-Based Navigation&lt;/b&gt;&lt;/span&gt;&lt;br style=&quot;&quot;&gt;&lt;font style=&quot;&quot;&gt;&lt;br&gt;&lt;font style=&quot;font-size: 16px;&quot;&gt;Learn to navigate to hear humans better&lt;/font&gt;&lt;/font&gt;&lt;/font&gt;" style="html=1;shadow=0;dashed=0;align=left;verticalAlign=middle;shape=mxgraph.arrows2.arrow;dy=0;dx=10;notch=10;whiteSpace=wrap;fillColor=#f5f5f5;fontColor=#666666;strokeColor=#555555;spacingLeft=40;" vertex="1" parent="IUVYeyd4DuOK6Qj74Us7-83">
          <mxGeometry x="60" width="470" height="70" as="geometry" />
        </mxCell>
        <mxCell id="IUVYeyd4DuOK6Qj74Us7-19" value="&lt;div style=&quot;text-align: left;&quot;&gt;&lt;span&gt;&lt;b&gt;3&lt;/b&gt;&lt;/span&gt;&lt;/div&gt;" style="html=1;shadow=0;dashed=0;align=center;verticalAlign=middle;shape=mxgraph.arrows2.arrow;dy=0;dx=10;notch=10;whiteSpace=wrap;labelBackgroundColor=none;fillColor=#f5f5f5;fontColor=#555555;fontSize=35;strokeColor=#666666;" vertex="1" parent="IUVYeyd4DuOK6Qj74Us7-83">
          <mxGeometry width="60" height="70" as="geometry" />
        </mxCell>
        <mxCell id="IUVYeyd4DuOK6Qj74Us7-84" value="" style="group;fontColor=#666666;" vertex="1" connectable="0" parent="1">
          <mxGeometry x="1340" y="1455" width="530" height="70" as="geometry" />
        </mxCell>
        <mxCell id="IUVYeyd4DuOK6Qj74Us7-20" value="&lt;div style=&quot;&quot;&gt;&lt;span style=&quot;background-color: transparent; font-size: 18px;&quot;&gt;&lt;b&gt;Introduction&lt;/b&gt;&lt;/span&gt;&lt;/div&gt;" style="html=1;shadow=0;dashed=0;align=left;verticalAlign=middle;shape=mxgraph.arrows2.arrow;dy=0;dx=10;notch=10;whiteSpace=wrap;fillColor=#f5f5f5;fontColor=#666666;strokeColor=#666666;spacingLeft=40;" vertex="1" parent="IUVYeyd4DuOK6Qj74Us7-84">
          <mxGeometry x="60" width="470" height="70" as="geometry" />
        </mxCell>
        <mxCell id="IUVYeyd4DuOK6Qj74Us7-22" value="&lt;div style=&quot;text-align: left;&quot;&gt;&lt;br&gt;&lt;/div&gt;" style="html=1;shadow=0;dashed=0;align=center;verticalAlign=middle;shape=mxgraph.arrows2.arrow;dy=0;dx=10;notch=10;whiteSpace=wrap;labelBackgroundColor=none;fillColor=#f5f5f5;fontColor=#333333;fontSize=35;strokeColor=#666666;" vertex="1" parent="IUVYeyd4DuOK6Qj74Us7-84">
          <mxGeometry width="60" height="70" as="geometry" />
        </mxCell>
        <mxCell id="IUVYeyd4DuOK6Qj74Us7-85" value="" style="group;fontColor=#666666;" vertex="1" connectable="0" parent="1">
          <mxGeometry x="1905" y="1455" width="530" height="70" as="geometry" />
        </mxCell>
        <mxCell id="IUVYeyd4DuOK6Qj74Us7-40" value="&lt;div style=&quot;&quot;&gt;&lt;span style=&quot;background-color: transparent; font-size: 18px;&quot;&gt;&lt;b&gt;Introduction&lt;/b&gt;&lt;/span&gt;&lt;/div&gt;" style="html=1;shadow=0;dashed=0;align=left;verticalAlign=middle;shape=mxgraph.arrows2.arrow;dy=0;dx=10;notch=10;whiteSpace=wrap;fillColor=#f5f5f5;fontColor=#666666;strokeColor=#666666;spacingLeft=40;" vertex="1" parent="IUVYeyd4DuOK6Qj74Us7-85">
          <mxGeometry x="60" width="470" height="70" as="geometry" />
        </mxCell>
        <mxCell id="IUVYeyd4DuOK6Qj74Us7-42" value="&lt;div style=&quot;text-align: left;&quot;&gt;&lt;br&gt;&lt;/div&gt;" style="html=1;shadow=0;dashed=0;align=center;verticalAlign=middle;shape=mxgraph.arrows2.arrow;dy=0;dx=10;notch=10;whiteSpace=wrap;labelBackgroundColor=none;fillColor=#f5f5f5;fontColor=#333333;fontSize=35;strokeColor=#666666;" vertex="1" parent="IUVYeyd4DuOK6Qj74Us7-85">
          <mxGeometry width="60" height="70" as="geometry" />
        </mxCell>
        <mxCell id="IUVYeyd4DuOK6Qj74Us7-86" value="" style="group;fontColor=#666666;" vertex="1" connectable="0" parent="1">
          <mxGeometry x="1905" y="1535" width="530" height="70" as="geometry" />
        </mxCell>
        <mxCell id="IUVYeyd4DuOK6Qj74Us7-34" value="&lt;b style=&quot;text-wrap-mode: wrap;&quot;&gt;&lt;font style=&quot;font-size: 18px;&quot;&gt;Acoustic Robot Simulator&lt;br&gt;&lt;/font&gt;&lt;/b&gt;&lt;br style=&quot;text-wrap-mode: wrap;&quot;&gt;&lt;font style=&quot;text-wrap-mode: wrap; font-size: 16px;&quot;&gt;Simulate dynamic acoustic environments&lt;/font&gt;" style="html=1;shadow=0;dashed=0;align=left;verticalAlign=middle;shape=mxgraph.arrows2.arrow;dy=0;dx=10;notch=10;whiteSpace=wrap;fillColor=#f5f5f5;fontColor=#666666;strokeColor=#555555;spacingLeft=40;" vertex="1" parent="IUVYeyd4DuOK6Qj74Us7-86">
          <mxGeometry x="60" width="470" height="70" as="geometry" />
        </mxCell>
        <mxCell id="IUVYeyd4DuOK6Qj74Us7-35" value="&lt;div style=&quot;text-align: left;&quot;&gt;&lt;span&gt;&lt;b&gt;1&lt;/b&gt;&lt;/span&gt;&lt;/div&gt;" style="html=1;shadow=0;dashed=0;align=center;verticalAlign=middle;shape=mxgraph.arrows2.arrow;dy=0;dx=10;notch=10;whiteSpace=wrap;labelBackgroundColor=none;fillColor=#f5f5f5;fontColor=#666666;fontSize=35;strokeColor=#555555;" vertex="1" parent="IUVYeyd4DuOK6Qj74Us7-86">
          <mxGeometry width="60" height="70" as="geometry" />
        </mxCell>
        <mxCell id="IUVYeyd4DuOK6Qj74Us7-87" value="" style="group;fontColor=#666666;" vertex="1" connectable="0" parent="1">
          <mxGeometry x="1905" y="1695" width="530" height="70" as="geometry" />
        </mxCell>
        <mxCell id="IUVYeyd4DuOK6Qj74Us7-38" value="&lt;font style=&quot;&quot;&gt;&lt;span style=&quot;font-size: 18px;&quot;&gt;&lt;b style=&quot;&quot;&gt;Deep RL for Sound-Based Navigation&lt;/b&gt;&lt;/span&gt;&lt;br style=&quot;&quot;&gt;&lt;font style=&quot;&quot;&gt;&lt;br&gt;&lt;font style=&quot;font-size: 16px;&quot;&gt;Learn to navigate to hear humans better&lt;/font&gt;&lt;/font&gt;&lt;/font&gt;" style="html=1;shadow=0;dashed=0;align=left;verticalAlign=middle;shape=mxgraph.arrows2.arrow;dy=0;dx=10;notch=10;whiteSpace=wrap;fillColor=#f5f5f5;fontColor=#666666;strokeColor=#555555;spacingLeft=40;" vertex="1" parent="IUVYeyd4DuOK6Qj74Us7-87">
          <mxGeometry x="60" width="470" height="70" as="geometry" />
        </mxCell>
        <mxCell id="IUVYeyd4DuOK6Qj74Us7-39" value="&lt;div style=&quot;text-align: left;&quot;&gt;&lt;span&gt;&lt;b&gt;3&lt;/b&gt;&lt;/span&gt;&lt;/div&gt;" style="html=1;shadow=0;dashed=0;align=center;verticalAlign=middle;shape=mxgraph.arrows2.arrow;dy=0;dx=10;notch=10;whiteSpace=wrap;labelBackgroundColor=none;fillColor=#f5f5f5;fontColor=#555555;fontSize=35;strokeColor=#666666;" vertex="1" parent="IUVYeyd4DuOK6Qj74Us7-87">
          <mxGeometry width="60" height="70" as="geometry" />
        </mxCell>
        <mxCell id="IUVYeyd4DuOK6Qj74Us7-88" value="" style="group;fontColor=#666666;" vertex="1" connectable="0" parent="1">
          <mxGeometry x="1905" y="1775" width="530" height="70" as="geometry" />
        </mxCell>
        <mxCell id="IUVYeyd4DuOK6Qj74Us7-41" value="&lt;div style=&quot;&quot;&gt;&lt;span style=&quot;background-color: transparent; font-size: 18px;&quot;&gt;&lt;b&gt;Conclusion&lt;/b&gt;&lt;/span&gt;&lt;/div&gt;" style="html=1;shadow=0;dashed=0;align=left;verticalAlign=middle;shape=mxgraph.arrows2.arrow;dy=0;dx=10;notch=10;whiteSpace=wrap;fillColor=#f5f5f5;fontColor=#666666;strokeColor=#555555;spacingLeft=40;" vertex="1" parent="IUVYeyd4DuOK6Qj74Us7-88">
          <mxGeometry x="60" width="470" height="70" as="geometry" />
        </mxCell>
        <mxCell id="IUVYeyd4DuOK6Qj74Us7-43" value="&lt;div style=&quot;text-align: left;&quot;&gt;&lt;br&gt;&lt;/div&gt;" style="html=1;shadow=0;dashed=0;align=center;verticalAlign=middle;shape=mxgraph.arrows2.arrow;dy=0;dx=10;notch=10;whiteSpace=wrap;labelBackgroundColor=none;fillColor=#f5f5f5;fontColor=#333333;fontSize=35;strokeColor=#666666;" vertex="1" parent="IUVYeyd4DuOK6Qj74Us7-88">
          <mxGeometry width="60" height="70" as="geometry" />
        </mxCell>
        <mxCell id="IUVYeyd4DuOK6Qj74Us7-92" value="" style="group;fontColor=#666666;" vertex="1" connectable="0" parent="1">
          <mxGeometry x="2460" y="1455" width="530" height="70" as="geometry" />
        </mxCell>
        <mxCell id="IUVYeyd4DuOK6Qj74Us7-93" value="&lt;div style=&quot;&quot;&gt;&lt;span style=&quot;background-color: transparent; font-size: 18px;&quot;&gt;&lt;b&gt;Introduction&lt;/b&gt;&lt;/span&gt;&lt;/div&gt;" style="html=1;shadow=0;dashed=0;align=left;verticalAlign=middle;shape=mxgraph.arrows2.arrow;dy=0;dx=10;notch=10;whiteSpace=wrap;fillColor=#f5f5f5;fontColor=#666666;strokeColor=#666666;spacingLeft=40;" vertex="1" parent="IUVYeyd4DuOK6Qj74Us7-92">
          <mxGeometry x="60" width="470" height="70" as="geometry" />
        </mxCell>
        <mxCell id="IUVYeyd4DuOK6Qj74Us7-94" value="&lt;div style=&quot;text-align: left;&quot;&gt;&lt;br&gt;&lt;/div&gt;" style="html=1;shadow=0;dashed=0;align=center;verticalAlign=middle;shape=mxgraph.arrows2.arrow;dy=0;dx=10;notch=10;whiteSpace=wrap;labelBackgroundColor=none;fillColor=#f5f5f5;fontColor=#333333;fontSize=35;strokeColor=#666666;" vertex="1" parent="IUVYeyd4DuOK6Qj74Us7-92">
          <mxGeometry width="60" height="70" as="geometry" />
        </mxCell>
        <mxCell id="IUVYeyd4DuOK6Qj74Us7-95" value="" style="group;fontColor=#666666;" vertex="1" connectable="0" parent="1">
          <mxGeometry x="2460" y="1535" width="530" height="70" as="geometry" />
        </mxCell>
        <mxCell id="IUVYeyd4DuOK6Qj74Us7-96" value="&lt;b style=&quot;text-wrap-mode: wrap;&quot;&gt;&lt;font style=&quot;font-size: 18px;&quot;&gt;Acoustic Robot Simulator&lt;br&gt;&lt;/font&gt;&lt;/b&gt;&lt;br style=&quot;text-wrap-mode: wrap;&quot;&gt;&lt;font style=&quot;text-wrap-mode: wrap; font-size: 16px;&quot;&gt;Simulate dynamic acoustic environments&lt;/font&gt;" style="html=1;shadow=0;dashed=0;align=left;verticalAlign=middle;shape=mxgraph.arrows2.arrow;dy=0;dx=10;notch=10;whiteSpace=wrap;fillColor=#f5f5f5;fontColor=#666666;strokeColor=#555555;spacingLeft=40;" vertex="1" parent="IUVYeyd4DuOK6Qj74Us7-95">
          <mxGeometry x="60" width="470" height="70" as="geometry" />
        </mxCell>
        <mxCell id="IUVYeyd4DuOK6Qj74Us7-97" value="&lt;div style=&quot;text-align: left;&quot;&gt;&lt;span&gt;&lt;b&gt;1&lt;/b&gt;&lt;/span&gt;&lt;/div&gt;" style="html=1;shadow=0;dashed=0;align=center;verticalAlign=middle;shape=mxgraph.arrows2.arrow;dy=0;dx=10;notch=10;whiteSpace=wrap;labelBackgroundColor=none;fillColor=#f5f5f5;fontColor=#666666;fontSize=35;strokeColor=#555555;" vertex="1" parent="IUVYeyd4DuOK6Qj74Us7-95">
          <mxGeometry width="60" height="70" as="geometry" />
        </mxCell>
        <mxCell id="IUVYeyd4DuOK6Qj74Us7-101" value="" style="group;fontColor=#666666;" vertex="1" connectable="0" parent="1">
          <mxGeometry x="2460" y="1775" width="530" height="70" as="geometry" />
        </mxCell>
        <mxCell id="IUVYeyd4DuOK6Qj74Us7-102" value="&lt;div style=&quot;&quot;&gt;&lt;span style=&quot;background-color: transparent; font-size: 18px;&quot;&gt;&lt;b&gt;Conclusion&lt;/b&gt;&lt;/span&gt;&lt;/div&gt;" style="html=1;shadow=0;dashed=0;align=left;verticalAlign=middle;shape=mxgraph.arrows2.arrow;dy=0;dx=10;notch=10;whiteSpace=wrap;fillColor=#f5f5f5;fontColor=#666666;strokeColor=#555555;spacingLeft=40;" vertex="1" parent="IUVYeyd4DuOK6Qj74Us7-101">
          <mxGeometry x="60" width="470" height="70" as="geometry" />
        </mxCell>
        <mxCell id="IUVYeyd4DuOK6Qj74Us7-103" value="&lt;div style=&quot;text-align: left;&quot;&gt;&lt;br&gt;&lt;/div&gt;" style="html=1;shadow=0;dashed=0;align=center;verticalAlign=middle;shape=mxgraph.arrows2.arrow;dy=0;dx=10;notch=10;whiteSpace=wrap;labelBackgroundColor=none;fillColor=#f5f5f5;fontColor=#333333;fontSize=35;strokeColor=#666666;" vertex="1" parent="IUVYeyd4DuOK6Qj74Us7-101">
          <mxGeometry width="60" height="70" as="geometry" />
        </mxCell>
        <mxCell id="IUVYeyd4DuOK6Qj74Us7-104" value="" style="group;fontColor=#666666;" vertex="1" connectable="0" parent="1">
          <mxGeometry x="2460" y="1615" width="530" height="70" as="geometry" />
        </mxCell>
        <mxCell id="IUVYeyd4DuOK6Qj74Us7-105" value="&lt;font style=&quot;&quot;&gt;&lt;span style=&quot;font-size: 18px;&quot;&gt;&lt;b style=&quot;&quot;&gt;(Active) Sound Source Localization&lt;/b&gt;&lt;/span&gt;&lt;br style=&quot;&quot;&gt;&lt;font style=&quot;&quot;&gt;&lt;br&gt;&lt;font style=&quot;font-size: 16px;&quot;&gt;Accurately localize speaker(s) in a reverberant room&lt;/font&gt;&lt;/font&gt;&lt;/font&gt;" style="html=1;shadow=0;dashed=0;align=left;verticalAlign=middle;shape=mxgraph.arrows2.arrow;dy=0;dx=10;notch=10;whiteSpace=wrap;fillColor=#f5f5f5;fontColor=#666666;strokeColor=#555555;spacingLeft=40;" vertex="1" parent="IUVYeyd4DuOK6Qj74Us7-104">
          <mxGeometry x="60" width="470" height="70" as="geometry" />
        </mxCell>
        <mxCell id="IUVYeyd4DuOK6Qj74Us7-106" value="&lt;div style=&quot;text-align: left;&quot;&gt;&lt;span&gt;&lt;b&gt;2&lt;/b&gt;&lt;/span&gt;&lt;/div&gt;" style="html=1;shadow=0;dashed=0;align=center;verticalAlign=middle;shape=mxgraph.arrows2.arrow;dy=0;dx=10;notch=10;whiteSpace=wrap;labelBackgroundColor=none;fillColor=#f5f5f5;fontColor=#555555;fontSize=35;strokeColor=#666666;" vertex="1" parent="IUVYeyd4DuOK6Qj74Us7-104">
          <mxGeometry width="60" height="70" as="geometry" />
        </mxCell>
        <mxCell id="IUVYeyd4DuOK6Qj74Us7-107" value="" style="group" vertex="1" connectable="0" parent="1">
          <mxGeometry x="2460" y="1695" width="530" height="70" as="geometry" />
        </mxCell>
        <mxCell id="IUVYeyd4DuOK6Qj74Us7-108" value="&lt;font style=&quot;color: rgb(255, 255, 255);&quot;&gt;&lt;span style=&quot;font-size: 18px;&quot;&gt;&lt;b style=&quot;&quot;&gt;Deep RL for Sound-Based Navigation&lt;/b&gt;&lt;/span&gt;&lt;br style=&quot;&quot;&gt;&lt;font style=&quot;&quot;&gt;&lt;br&gt;&lt;font style=&quot;font-size: 16px;&quot;&gt;Learn to navigate to hear humans better&lt;/font&gt;&lt;/font&gt;&lt;/font&gt;" style="html=1;shadow=0;dashed=0;align=left;verticalAlign=middle;shape=mxgraph.arrows2.arrow;dy=0;dx=10;notch=10;whiteSpace=wrap;fillColor=#23373B;fontColor=#FFFFFF;strokeColor=none;spacingLeft=40;" vertex="1" parent="IUVYeyd4DuOK6Qj74Us7-107">
          <mxGeometry x="60" width="470" height="70" as="geometry" />
        </mxCell>
        <mxCell id="IUVYeyd4DuOK6Qj74Us7-109" value="&lt;div style=&quot;text-align: left;&quot;&gt;&lt;span&gt;&lt;b&gt;3&lt;/b&gt;&lt;/span&gt;&lt;/div&gt;" style="html=1;shadow=0;dashed=0;align=center;verticalAlign=middle;shape=mxgraph.arrows2.arrow;dy=0;dx=10;notch=10;whiteSpace=wrap;labelBackgroundColor=none;fillColor=#EB811B;fontColor=#FFFFFF;fontSize=35;" vertex="1" parent="IUVYeyd4DuOK6Qj74Us7-107">
          <mxGeometry width="60" height="70" as="geometry" />
        </mxCell>
        <mxCell id="IUVYeyd4DuOK6Qj74Us7-110" value="" style="group;fontColor=#666666;" vertex="1" connectable="0" parent="1">
          <mxGeometry x="3020" y="1455" width="530" height="70" as="geometry" />
        </mxCell>
        <mxCell id="IUVYeyd4DuOK6Qj74Us7-111" value="&lt;div style=&quot;&quot;&gt;&lt;span style=&quot;background-color: transparent; font-size: 18px;&quot;&gt;&lt;b&gt;Introduction&lt;/b&gt;&lt;/span&gt;&lt;/div&gt;" style="html=1;shadow=0;dashed=0;align=left;verticalAlign=middle;shape=mxgraph.arrows2.arrow;dy=0;dx=10;notch=10;whiteSpace=wrap;fillColor=#f5f5f5;fontColor=#666666;strokeColor=#666666;spacingLeft=40;" vertex="1" parent="IUVYeyd4DuOK6Qj74Us7-110">
          <mxGeometry x="60" width="470" height="70" as="geometry" />
        </mxCell>
        <mxCell id="IUVYeyd4DuOK6Qj74Us7-112" value="&lt;div style=&quot;text-align: left;&quot;&gt;&lt;br&gt;&lt;/div&gt;" style="html=1;shadow=0;dashed=0;align=center;verticalAlign=middle;shape=mxgraph.arrows2.arrow;dy=0;dx=10;notch=10;whiteSpace=wrap;labelBackgroundColor=none;fillColor=#f5f5f5;fontColor=#333333;fontSize=35;strokeColor=#666666;" vertex="1" parent="IUVYeyd4DuOK6Qj74Us7-110">
          <mxGeometry width="60" height="70" as="geometry" />
        </mxCell>
        <mxCell id="IUVYeyd4DuOK6Qj74Us7-113" value="" style="group;fontColor=#666666;" vertex="1" connectable="0" parent="1">
          <mxGeometry x="3020" y="1535" width="530" height="70" as="geometry" />
        </mxCell>
        <mxCell id="IUVYeyd4DuOK6Qj74Us7-114" value="&lt;b style=&quot;text-wrap-mode: wrap;&quot;&gt;&lt;font style=&quot;font-size: 18px;&quot;&gt;Acoustic Robot Simulator&lt;br&gt;&lt;/font&gt;&lt;/b&gt;&lt;br style=&quot;text-wrap-mode: wrap;&quot;&gt;&lt;font style=&quot;text-wrap-mode: wrap; font-size: 16px;&quot;&gt;Simulate dynamic acoustic environments&lt;/font&gt;" style="html=1;shadow=0;dashed=0;align=left;verticalAlign=middle;shape=mxgraph.arrows2.arrow;dy=0;dx=10;notch=10;whiteSpace=wrap;fillColor=#f5f5f5;fontColor=#666666;strokeColor=#555555;spacingLeft=40;" vertex="1" parent="IUVYeyd4DuOK6Qj74Us7-113">
          <mxGeometry x="60" width="470" height="70" as="geometry" />
        </mxCell>
        <mxCell id="IUVYeyd4DuOK6Qj74Us7-115" value="&lt;div style=&quot;text-align: left;&quot;&gt;&lt;span&gt;&lt;b&gt;1&lt;/b&gt;&lt;/span&gt;&lt;/div&gt;" style="html=1;shadow=0;dashed=0;align=center;verticalAlign=middle;shape=mxgraph.arrows2.arrow;dy=0;dx=10;notch=10;whiteSpace=wrap;labelBackgroundColor=none;fillColor=#f5f5f5;fontColor=#666666;fontSize=35;strokeColor=#555555;" vertex="1" parent="IUVYeyd4DuOK6Qj74Us7-113">
          <mxGeometry width="60" height="70" as="geometry" />
        </mxCell>
        <mxCell id="IUVYeyd4DuOK6Qj74Us7-119" value="" style="group;fontColor=#666666;" vertex="1" connectable="0" parent="1">
          <mxGeometry x="3020" y="1615" width="530" height="70" as="geometry" />
        </mxCell>
        <mxCell id="IUVYeyd4DuOK6Qj74Us7-120" value="&lt;font style=&quot;&quot;&gt;&lt;span style=&quot;font-size: 18px;&quot;&gt;&lt;b style=&quot;&quot;&gt;(Active) Sound Source Localization&lt;/b&gt;&lt;/span&gt;&lt;br style=&quot;&quot;&gt;&lt;font style=&quot;&quot;&gt;&lt;br&gt;&lt;font style=&quot;font-size: 16px;&quot;&gt;Accurately localize speaker(s) in a reverberant room&lt;/font&gt;&lt;/font&gt;&lt;/font&gt;" style="html=1;shadow=0;dashed=0;align=left;verticalAlign=middle;shape=mxgraph.arrows2.arrow;dy=0;dx=10;notch=10;whiteSpace=wrap;fillColor=#f5f5f5;fontColor=#666666;strokeColor=#555555;spacingLeft=40;" vertex="1" parent="IUVYeyd4DuOK6Qj74Us7-119">
          <mxGeometry x="60" width="470" height="70" as="geometry" />
        </mxCell>
        <mxCell id="IUVYeyd4DuOK6Qj74Us7-121" value="&lt;div style=&quot;text-align: left;&quot;&gt;&lt;span&gt;&lt;b&gt;2&lt;/b&gt;&lt;/span&gt;&lt;/div&gt;" style="html=1;shadow=0;dashed=0;align=center;verticalAlign=middle;shape=mxgraph.arrows2.arrow;dy=0;dx=10;notch=10;whiteSpace=wrap;labelBackgroundColor=none;fillColor=#f5f5f5;fontColor=#555555;fontSize=35;strokeColor=#666666;" vertex="1" parent="IUVYeyd4DuOK6Qj74Us7-119">
          <mxGeometry width="60" height="70" as="geometry" />
        </mxCell>
        <mxCell id="IUVYeyd4DuOK6Qj74Us7-125" value="" style="group" vertex="1" connectable="0" parent="1">
          <mxGeometry x="3020" y="1775" width="530" height="70" as="geometry" />
        </mxCell>
        <mxCell id="IUVYeyd4DuOK6Qj74Us7-126" value="&lt;div style=&quot;&quot;&gt;&lt;span style=&quot;background-color: transparent; color: light-dark(rgb(255, 255, 255), rgb(18, 18, 18)); font-size: 18px;&quot;&gt;&lt;b&gt;Conclusion&lt;/b&gt;&lt;/span&gt;&lt;/div&gt;" style="html=1;shadow=0;dashed=0;align=left;verticalAlign=middle;shape=mxgraph.arrows2.arrow;dy=0;dx=10;notch=10;whiteSpace=wrap;fillColor=#23373B;fontColor=#FFFFFF;strokeColor=none;spacingLeft=40;" vertex="1" parent="IUVYeyd4DuOK6Qj74Us7-125">
          <mxGeometry x="60" width="470" height="70" as="geometry" />
        </mxCell>
        <mxCell id="IUVYeyd4DuOK6Qj74Us7-127" value="&lt;div style=&quot;text-align: left;&quot;&gt;&lt;br&gt;&lt;/div&gt;" style="html=1;shadow=0;dashed=0;align=center;verticalAlign=middle;shape=mxgraph.arrows2.arrow;dy=0;dx=10;notch=10;whiteSpace=wrap;labelBackgroundColor=none;fillColor=#EB811B;fontColor=#FFFFFF;fontSize=35;" vertex="1" parent="IUVYeyd4DuOK6Qj74Us7-125">
          <mxGeometry width="60" height="70" as="geometry" />
        </mxCell>
        <mxCell id="IUVYeyd4DuOK6Qj74Us7-128" value="" style="group;fontColor=#666666;" vertex="1" connectable="0" parent="1">
          <mxGeometry x="3020" y="1695" width="530" height="70" as="geometry" />
        </mxCell>
        <mxCell id="IUVYeyd4DuOK6Qj74Us7-129" value="&lt;font style=&quot;&quot;&gt;&lt;span style=&quot;font-size: 18px;&quot;&gt;&lt;b style=&quot;&quot;&gt;Deep RL for Sound-Based Navigation&lt;/b&gt;&lt;/span&gt;&lt;br style=&quot;&quot;&gt;&lt;font style=&quot;&quot;&gt;&lt;br&gt;&lt;font style=&quot;font-size: 16px;&quot;&gt;Learn to navigate to hear humans better&lt;/font&gt;&lt;/font&gt;&lt;/font&gt;" style="html=1;shadow=0;dashed=0;align=left;verticalAlign=middle;shape=mxgraph.arrows2.arrow;dy=0;dx=10;notch=10;whiteSpace=wrap;fillColor=#f5f5f5;fontColor=#666666;strokeColor=#555555;spacingLeft=40;" vertex="1" parent="IUVYeyd4DuOK6Qj74Us7-128">
          <mxGeometry x="60" width="470" height="70" as="geometry" />
        </mxCell>
        <mxCell id="IUVYeyd4DuOK6Qj74Us7-130" value="&lt;div style=&quot;text-align: left;&quot;&gt;&lt;span&gt;&lt;b&gt;3&lt;/b&gt;&lt;/span&gt;&lt;/div&gt;" style="html=1;shadow=0;dashed=0;align=center;verticalAlign=middle;shape=mxgraph.arrows2.arrow;dy=0;dx=10;notch=10;whiteSpace=wrap;labelBackgroundColor=none;fillColor=#f5f5f5;fontColor=#555555;fontSize=35;strokeColor=#666666;" vertex="1" parent="IUVYeyd4DuOK6Qj74Us7-128">
          <mxGeometry width="60" height="70" as="geometry" />
        </mxCell>
        <mxCell id="IUVYeyd4DuOK6Qj74Us7-131" value="" style="group" vertex="1" connectable="0" parent="1">
          <mxGeometry x="730" y="1530" width="530" height="70" as="geometry" />
        </mxCell>
        <mxCell id="IUVYeyd4DuOK6Qj74Us7-132" value="&lt;b style=&quot;text-wrap-mode: wrap;&quot;&gt;&lt;font style=&quot;font-size: 18px;&quot;&gt;Acoustic Robot Simulator&lt;br&gt;&lt;/font&gt;&lt;/b&gt;&lt;br style=&quot;text-wrap-mode: wrap;&quot;&gt;&lt;font style=&quot;text-wrap-mode: wrap; font-size: 16px;&quot;&gt;Simulate dynamic acoustic environments&lt;/font&gt;" style="html=1;shadow=0;dashed=0;align=left;verticalAlign=middle;shape=mxgraph.arrows2.arrow;dy=0;dx=10;notch=10;whiteSpace=wrap;fillColor=#23373B;fontColor=#FFFFFF;strokeColor=none;spacingLeft=40;" vertex="1" parent="IUVYeyd4DuOK6Qj74Us7-131">
          <mxGeometry x="60" width="470" height="70" as="geometry" />
        </mxCell>
        <mxCell id="IUVYeyd4DuOK6Qj74Us7-133" value="&lt;div style=&quot;text-align: left;&quot;&gt;&lt;span&gt;&lt;b&gt;1&lt;/b&gt;&lt;/span&gt;&lt;/div&gt;" style="html=1;shadow=0;dashed=0;align=center;verticalAlign=middle;shape=mxgraph.arrows2.arrow;dy=0;dx=10;notch=10;whiteSpace=wrap;labelBackgroundColor=none;fillColor=#EB811B;fontColor=#FFFFFF;fontSize=35;" vertex="1" parent="IUVYeyd4DuOK6Qj74Us7-131">
          <mxGeometry width="60" height="70" as="geometry" />
        </mxCell>
        <mxCell id="IUVYeyd4DuOK6Qj74Us7-134" value="" style="group" vertex="1" connectable="0" parent="1">
          <mxGeometry x="730" y="1610" width="530" height="70" as="geometry" />
        </mxCell>
        <mxCell id="IUVYeyd4DuOK6Qj74Us7-135" value="&lt;font style=&quot;color: rgb(255, 255, 255);&quot;&gt;&lt;span style=&quot;font-size: 18px;&quot;&gt;&lt;b style=&quot;&quot;&gt;(Active) Sound Source Localization&lt;/b&gt;&lt;/span&gt;&lt;br style=&quot;&quot;&gt;&lt;font style=&quot;&quot;&gt;&lt;br&gt;&lt;font style=&quot;font-size: 16px;&quot;&gt;Accurately localize speaker(s) in a reverberant room&lt;/font&gt;&lt;/font&gt;&lt;/font&gt;" style="html=1;shadow=0;dashed=0;align=left;verticalAlign=middle;shape=mxgraph.arrows2.arrow;dy=0;dx=10;notch=10;whiteSpace=wrap;fillColor=#23373B;fontColor=#FFFFFF;strokeColor=none;spacingLeft=40;" vertex="1" parent="IUVYeyd4DuOK6Qj74Us7-134">
          <mxGeometry x="60" width="470" height="70" as="geometry" />
        </mxCell>
        <mxCell id="IUVYeyd4DuOK6Qj74Us7-136" value="&lt;div style=&quot;text-align: left;&quot;&gt;&lt;span&gt;&lt;b&gt;2&lt;/b&gt;&lt;/span&gt;&lt;/div&gt;" style="html=1;shadow=0;dashed=0;align=center;verticalAlign=middle;shape=mxgraph.arrows2.arrow;dy=0;dx=10;notch=10;whiteSpace=wrap;labelBackgroundColor=none;fillColor=#EB811B;fontColor=#FFFFFF;fontSize=35;" vertex="1" parent="IUVYeyd4DuOK6Qj74Us7-134">
          <mxGeometry width="60" height="70" as="geometry" />
        </mxCell>
        <mxCell id="IUVYeyd4DuOK6Qj74Us7-137" value="" style="group" vertex="1" connectable="0" parent="1">
          <mxGeometry x="730" y="1690" width="530" height="70" as="geometry" />
        </mxCell>
        <mxCell id="IUVYeyd4DuOK6Qj74Us7-138" value="&lt;font style=&quot;color: rgb(255, 255, 255);&quot;&gt;&lt;span style=&quot;font-size: 18px;&quot;&gt;&lt;b style=&quot;&quot;&gt;Deep RL for Sound-Based Navigation&lt;/b&gt;&lt;/span&gt;&lt;br style=&quot;&quot;&gt;&lt;font style=&quot;&quot;&gt;&lt;br&gt;&lt;font style=&quot;font-size: 16px;&quot;&gt;Learn to navigate to hear humans better&lt;/font&gt;&lt;/font&gt;&lt;/font&gt;" style="html=1;shadow=0;dashed=0;align=left;verticalAlign=middle;shape=mxgraph.arrows2.arrow;dy=0;dx=10;notch=10;whiteSpace=wrap;fillColor=#23373B;fontColor=#FFFFFF;strokeColor=none;spacingLeft=40;" vertex="1" parent="IUVYeyd4DuOK6Qj74Us7-137">
          <mxGeometry x="60" width="470" height="70" as="geometry" />
        </mxCell>
        <mxCell id="IUVYeyd4DuOK6Qj74Us7-139" value="&lt;div style=&quot;text-align: left;&quot;&gt;&lt;span&gt;&lt;b&gt;3&lt;/b&gt;&lt;/span&gt;&lt;/div&gt;" style="html=1;shadow=0;dashed=0;align=center;verticalAlign=middle;shape=mxgraph.arrows2.arrow;dy=0;dx=10;notch=10;whiteSpace=wrap;labelBackgroundColor=none;fillColor=#EB811B;fontColor=#FFFFFF;fontSize=35;" vertex="1" parent="IUVYeyd4DuOK6Qj74Us7-137">
          <mxGeometry width="60" height="70" as="geometry" />
        </mxCell>
        <mxCell id="IUVYeyd4DuOK6Qj74Us7-140" value="" style="group" vertex="1" connectable="0" parent="1">
          <mxGeometry x="730" y="1770" width="530" height="70" as="geometry" />
        </mxCell>
        <mxCell id="IUVYeyd4DuOK6Qj74Us7-141" value="&lt;div style=&quot;&quot;&gt;&lt;span style=&quot;background-color: transparent; color: light-dark(rgb(255, 255, 255), rgb(18, 18, 18)); font-size: 18px;&quot;&gt;&lt;b&gt;Conclusion&lt;/b&gt;&lt;/span&gt;&lt;/div&gt;" style="html=1;shadow=0;dashed=0;align=left;verticalAlign=middle;shape=mxgraph.arrows2.arrow;dy=0;dx=10;notch=10;whiteSpace=wrap;fillColor=#23373B;fontColor=#FFFFFF;strokeColor=none;spacingLeft=40;" vertex="1" parent="IUVYeyd4DuOK6Qj74Us7-140">
          <mxGeometry x="60" width="470" height="70" as="geometry" />
        </mxCell>
        <mxCell id="IUVYeyd4DuOK6Qj74Us7-142" value="&lt;div style=&quot;text-align: left;&quot;&gt;&lt;br&gt;&lt;/div&gt;" style="html=1;shadow=0;dashed=0;align=center;verticalAlign=middle;shape=mxgraph.arrows2.arrow;dy=0;dx=10;notch=10;whiteSpace=wrap;labelBackgroundColor=none;fillColor=#EB811B;fontColor=#FFFFFF;fontSize=35;" vertex="1" parent="IUVYeyd4DuOK6Qj74Us7-140">
          <mxGeometry width="60" height="70" as="geometry" />
        </mxCell>
        <mxCell id="IUVYeyd4DuOK6Qj74Us7-143" value="" style="group;fontColor=#666666;" vertex="1" connectable="0" parent="1">
          <mxGeometry x="730" y="1450" width="530" height="70" as="geometry" />
        </mxCell>
        <mxCell id="IUVYeyd4DuOK6Qj74Us7-144" value="&lt;div style=&quot;&quot;&gt;&lt;span style=&quot;background-color: transparent; font-size: 18px;&quot;&gt;&lt;b&gt;Introduction&lt;/b&gt;&lt;/span&gt;&lt;/div&gt;" style="html=1;shadow=0;dashed=0;align=left;verticalAlign=middle;shape=mxgraph.arrows2.arrow;dy=0;dx=10;notch=10;whiteSpace=wrap;fillColor=#f5f5f5;fontColor=#666666;strokeColor=#666666;spacingLeft=40;" vertex="1" parent="IUVYeyd4DuOK6Qj74Us7-143">
          <mxGeometry x="60" width="470" height="70" as="geometry" />
        </mxCell>
        <mxCell id="IUVYeyd4DuOK6Qj74Us7-145" value="&lt;div style=&quot;text-align: left;&quot;&gt;&lt;br&gt;&lt;/div&gt;" style="html=1;shadow=0;dashed=0;align=center;verticalAlign=middle;shape=mxgraph.arrows2.arrow;dy=0;dx=10;notch=10;whiteSpace=wrap;labelBackgroundColor=none;fillColor=#f5f5f5;fontColor=#333333;fontSize=35;strokeColor=#666666;" vertex="1" parent="IUVYeyd4DuOK6Qj74Us7-143">
          <mxGeometry width="60" height="70" as="geometry" />
        </mxCell>
      </root>
    </mxGraphModel>
  </diagram>
</mxfile>
